<?xml version="1.0" encoding="UTF-8"?>
<svg version="1.1" xmlns="http://www.w3.org/2000/svg" width="216" height="203">
<path d="M0,0 L216,0 L216,203 L0,203 Z " fill="#FDFDFD" transform="translate(0,0)"/>
<path d="M0,0 L9,0 L15,3 L18,8 L18,16 L15,22 L10,25 L1,25 L-6,19 L-7,16 L-7,8 Z " fill="#191819" transform="translate(108,87)"/>
<path d="M0,0 L6,0 L13,6 L13,15 L8,21 L-1,22 L-7,17 L-8,8 L-5,3 Z " fill="#1C1B1C" transform="translate(129,68)"/>
<path d="M0,0 L9,0 L14,4 L15,6 L15,14 L10,20 L1,21 L-5,16 L-6,14 L-6,6 L-2,1 Z " fill="#1B1A1B" transform="translate(89,70)"/>
<path d="M0,0 L9,0 L14,4 L15,6 L15,13 L12,18 L7,21 L0,20 L-5,16 L-6,14 L-6,6 L-2,1 Z " fill="#1C1B1C" transform="translate(127,110)"/>
<path d="M0,0 L8,1 L13,7 L13,15 L8,21 L-2,21 L-7,16 L-8,14 L-8,8 L-5,3 Z " fill="#1B1A1B" transform="translate(89,106)"/>
<path d="M0,0 L9,0 L13,5 L12,12 L8,16 L1,16 L-4,11 L-4,5 Z " fill="#1F1E1F" transform="translate(73,92)"/>
<path d="M0,0 L7,0 L12,6 L11,13 L8,16 L0,16 L-5,11 L-5,5 Z " fill="#1E1D1E" transform="translate(73,53)"/>
<path d="M0,0 L6,0 L11,5 L11,11 L9,15 L5,17 L-2,16 L-5,13 L-5,4 Z " fill="#1D1C1D" transform="translate(73,127)"/>
<path d="M0,0 L9,0 L13,4 L13,10 L11,14 L8,16 L1,16 L-4,10 L-3,3 Z " fill="#1E1D1E" transform="translate(106,127)"/>
<path d="M0,0 L7,0 L11,4 L11,13 L6,17 L-1,16 L-5,12 L-5,5 Z " fill="#1E1D1E" transform="translate(110,57)"/>
<path d="M0,0 L7,0 L12,5 L12,11 L7,16 L0,16 L-4,12 L-5,5 Z " fill="#1E1D1E" transform="translate(147,54)"/>
<path d="M0,0 L8,0 L12,4 L12,11 L7,16 L0,16 L-4,12 L-4,4 Z " fill="#1B1A1B" transform="translate(143,92)"/>
<path d="M0,0 L7,0 L12,4 L12,12 L8,16 L0,16 L-4,12 L-4,5 Z " fill="#1A191A" transform="translate(146,128)"/>
<path d="M0,0 L5,1 L8,4 L8,9 L4,13 L-2,13 L-5,9 L-5,4 Z " fill="#232223" transform="translate(161,113)"/>
<path d="M0,0 L5,1 L8,4 L7,11 L5,13 L-1,13 L-5,9 L-4,3 Z " fill="#212021" transform="translate(61,112)"/>
<path d="M0,0 L5,0 L9,4 L9,9 L4,13 L-1,12 L-4,8 L-3,3 Z " fill="#232223" transform="translate(160,72)"/>
<path d="M0,0 L6,1 L8,3 L8,9 L4,13 L-2,12 L-4,10 L-4,3 Z " fill="#212021" transform="translate(57,146)"/>
<path d="M0,0 L6,1 L8,4 L7,11 L4,13 L-1,13 L-4,10 L-4,3 Z " fill="#201F20" transform="translate(61,71)"/>
<path d="M0,0 L7,1 L9,3 L9,9 L5,13 L-1,12 L-3,10 L-3,3 Z " fill="#212021" transform="translate(165,39)"/>
<path d="M0,0 L6,1 L8,3 L8,9 L4,13 L-1,12 L-4,9 L-4,3 Z " fill="#201F20" transform="translate(132,42)"/>
<path d="M0,0 L7,1 L9,3 L9,9 L6,12 L-1,12 L-3,10 L-3,3 Z " fill="#1C1B1C" transform="translate(90,43)"/>
<path d="M0,0 L6,0 L9,3 L9,9 L6,12 L0,12 L-3,10 L-3,3 Z " fill="#1C1B1C" transform="translate(57,38)"/>
<path d="M0,0 L6,0 L9,3 L9,9 L6,12 L0,12 L-3,9 L-3,3 Z " fill="#1B1A1B" transform="translate(164,147)"/>
<path d="M0,0 L5,0 L8,3 L8,10 L5,12 L-1,12 L-4,9 L-3,2 Z " fill="#1C1B1C" transform="translate(131,143)"/>
<path d="M0,0 L6,0 L9,3 L9,9 L6,12 L0,12 L-3,9 L-3,3 Z " fill="#1B1A1B" transform="translate(89,142)"/>
<path d="M0,0 L5,0 L6,1 L6,7 L0,8 L-2,6 L-1,1 Z " fill="#282728" transform="translate(47,130)"/>
<path d="M0,0 L5,1 L6,6 L5,8 L-1,8 L-2,7 L-2,2 Z " fill="#282828" transform="translate(48,58)"/>
<path d="M0,0 L5,0 L6,1 L6,6 L4,8 L-1,7 L-2,2 Z " fill="#262526" transform="translate(174,60)"/>
<path d="M0,0 L5,0 L6,1 L6,6 L4,8 L-1,7 L-2,2 Z " fill="#272627" transform="translate(76,32)"/>
<path d="M0,0 L6,1 L6,6 L4,8 L-1,7 L-2,2 Z " fill="#262526" transform="translate(43,163)"/>
<path d="M0,0 L5,1 L6,6 L4,8 L-1,7 L-2,2 Z " fill="#202020" transform="translate(75,157)"/>
<path d="M0,0 L5,0 L7,2 L6,7 L1,8 L-1,6 L-1,1 Z " fill="#232223" transform="translate(173,131)"/>
<path d="M0,0 L5,1 L6,6 L4,8 L-1,7 L-2,2 Z " fill="#262526" transform="translate(181,28)"/>
<path d="M0,0 L4,1 L6,3 L5,7 L4,8 L-1,8 L-2,7 L-2,2 Z " fill="#232223" transform="translate(148,31)"/>
<path d="M0,0 L4,1 L5,2 L5,7 L4,8 L-1,8 L-3,3 Z " fill="#252425" transform="translate(45,25)"/>
<path d="M0,0 L5,0 L6,1 L6,6 L5,7 L0,7 L-2,5 L-1,1 Z " fill="#1F1E1F" transform="translate(146,159)"/>
<path d="M0,0 L5,0 L6,1 L6,6 L5,7 L0,7 L-1,6 L-1,1 Z " fill="#1B1A1B" transform="translate(179,163)"/>
<path d="M0,0 L4,1 L5,6 L4,7 L-1,7 L-2,2 Z " fill="#363536" transform="translate(186,47)"/>
<path d="M0,0 L4,1 L5,5 L3,7 L-1,6 L-2,2 Z " fill="#2D2C2D" transform="translate(64,21)"/>
<path d="M0,0 L5,0 L6,5 L1,6 L-1,4 Z " fill="#292829" transform="translate(184,145)"/>
<path d="M0,0 L4,1 L5,6 L0,7 L-1,6 L-1,1 Z " fill="#292929" transform="translate(37,143)"/>
<path d="M0,0 L4,1 L5,5 L1,7 L-2,5 L-1,1 Z " fill="#292829" transform="translate(38,46)"/>
<path d="M0,0 L4,0 L5,5 L4,6 L-1,6 L-2,2 Z " fill="#292829" transform="translate(161,22)"/>
<path d="M0,0 L5,1 L4,6 L-1,5 Z " fill="#1B1B1B" transform="translate(159,170)"/>
<path d="M0,0 L5,1 L4,6 L-1,5 Z " fill="#1E1E1E" transform="translate(62,169)"/>
</svg>
